<svg xmlns="http://www.w3.org/2000/svg" xmlns:xlink="http://www.w3.org/1999/xlink" viewBox="0 0 360 117.25"><defs><style>.cls-1{fill:url(#未命名的渐变_21);}.cls-2{fill:url(#未命名的渐变_21-2);}</style><linearGradient id="未命名的渐变_21" x1="28.36" y1="112.87" x2="27.64" y2="112.67" gradientUnits="userSpaceOnUse"><stop offset="0" stop-color="#fff" stop-opacity="0"/><stop offset="0.48" stop-color="#f8f8f8" stop-opacity="0"/><stop offset="1" stop-color="#291e1b"/><stop offset="1" stop-color="#5d5d5d"/></linearGradient><linearGradient id="未命名的渐变_21-2" x1="30.02" y1="107.03" x2="31.19" y2="107.81" gradientTransform="translate(-7.76 4.93) rotate(-1.86)" xlink:href="#未命名的渐变_21"/></defs><title>logo</title><g id="图层_2" data-name="图层 2"><g id="图层_1-2" data-name="图层 1"><path d="M42.64,4.17,25.37,23H8.48L27.26,1.59ZM41.4,18l18.13,1L84.31,54.29h2.57v7.5H78.16l-2,20C75,88.26,69.47,93.08,63.69,93.08h-59l4-31.29H0v-7.5H2.57ZM27.26,57.25H59.53L48,31.7Zm27.13,7.5h-24l-2,20.82H49.73a2.68,2.68,0,0,0,2.66-2.76ZM63.26,5.11l9.42,22.94,17.58-5L76.84,3.77Z"/><path d="M100.26,2.67h58v7.5h-18.1V37.9h26.51v7.5h-23.3l25.53,40.47,3.77,7.5h-24L129.2,62.48,110,93.37H85.85l4-7.5L115.42,45.4H91.85V37.9h26.51V10.17h-18.1Z"/><path d="M177.79,11.75h4.59L183.21,0h15.43l-.83,11.75h17.63l-3.3,49L204,75,214.62,94H198.36l-2.57-4.73L193.13,94H177.7l10.37-18.65-9-16.48,2.76-39.48h-4Zm19.47,7.6L194.5,58l1.56,3,2-3.56L201,19.35Zm21.58,20.92h43.44v7.6H249.33V60.5h15.25V68H253.19L264.58,94H247L241,80.15,234.91,94H217.46L228.76,68h-11.3V60.5h15.25V47.87H218.84ZM221,1.59h42V26c0,5.23-3.58,9.38-7.9,9.38H221Zm25.27,6.6h-8.56V27.93h6.17a2.75,2.75,0,0,0,2.39-2.86Z"/><path d="M294.8,60.77l2,32.33H279.19l-2-32.33Zm-1.56-50,2,30.6H303L301,15.5h21.68l2,25.86h23.13v7.5H325.65l3,35.33c0,5.14-3.86,9.38-8.63,9.38H300.15v-7.5h4.16A2.77,2.77,0,0,0,307,83.21l-3-34.35h-30.5l-2-45.6h69.72v7.5ZM339.7,92.87l-9.3-31.34L350.27,61l9.3,31.34Z"/><path d="M9.33,111.64h4.79v3.86q-1.39,1.75-4.79,1.75C5.84,117.07,4,115.31,3.82,112q.23-5.4,5.29-5.61c2.48,0,4.14,1.07,5,3.12l-1.39.32a3.58,3.58,0,0,0-3.62-2.39q-3.56.33-3.89,4.5c.18,2.72,1.56,4.18,4.12,4.4A4.58,4.58,0,0,0,12.89,115v-2.39H9.33Z"/><path d="M51.72,107v1H48.11v9.14H46.89V108H43.28v-1Z"/><path d="M62.18,107h1.16v10.1H62.18Z"/><path d="M83.92,110c0-.17.06-.67.16-1.51a4.63,4.63,0,0,0,.06-.56l-.06-.05a6.41,6.41,0,0,1-.37,1.31l-3.39,7.93h-.69l-3.35-8c-.14-.53-.25-1-.32-1.26l0,.05c.07.88.11,1.58.11,2.12v7.07H74.9V107h1.59l3.08,7.32c.14.41.28.88.43,1.42h0a10.36,10.36,0,0,1,.42-1.37L83.55,107h1.6v10.1H83.92Z"/><path d="M97.53,116.18h6.74v.91h-8V107H104v1H97.53v3.44h6v1h-6Z"/><path d="M30.54,107.56a4.3,4.3,0,0,0-3.24,2.56,4.29,4.29,0,0,0-2.86-2.49,6.26,6.26,0,0,0-3.1,0A4.13,4.13,0,0,0,18,111.1a5.12,5.12,0,0,0,0,2,4,4,0,0,0,3.39,3.2,6.67,6.67,0,0,0,2.67,0A4.14,4.14,0,0,0,27.3,114a4,4,0,0,0,3.1,2.22,6.8,6.8,0,0,0,2.66,0A4.13,4.13,0,0,0,36.71,112q-.26-3.66-3.54-4.42A6.14,6.14,0,0,0,30.54,107.56Zm-8.94,7.88a3.2,3.2,0,0,1-2.28-2.14,4,4,0,0,1,0-2.59,3.38,3.38,0,0,1,2.16-2.18,4.06,4.06,0,0,1,2.6,0A3.64,3.64,0,0,1,26.5,112a3.39,3.39,0,0,1-2.64,3.47A4.55,4.55,0,0,1,21.6,115.44Zm8.93,0A3.42,3.42,0,0,1,28,112a3.69,3.69,0,0,1,2.43-3.47,4.09,4.09,0,0,1,2.61,0A3.62,3.62,0,0,1,35.43,112a3.37,3.37,0,0,1-2.64,3.47A4.55,4.55,0,0,1,30.53,115.44Z"/><path class="cls-1" d="M28.17,111.14s-.42,1.64-.87,2.9l.11.24.65-1.92S27.94,112.14,28.17,111.14Z"/><path class="cls-2" d="M27.19,109.86l.11.25s-1.07,3.17-1,3.16a4.45,4.45,0,0,0,.22-1.36Z"/><path d="M124.74,116.22h6.86v.93h-8.1V106.88h7.77v1h-6.53v3.5h6.16v1h-6.16Z"/><path d="M149.73,117.15l-5.62-8.22a4.42,4.42,0,0,1-.48-1h-.06a6.76,6.76,0,0,1,.17,1.69v7.55h-1.19V106.88H144l5.56,8.26a4.15,4.15,0,0,1,.43.83H150a10.49,10.49,0,0,1-.11-1.6v-7.49h1.19v10.27Z"/><path d="M170.37,106.88v1H166.7v9.3h-1.24v-9.3h-3.67v-1Z"/><path d="M182.53,116.22h6.86v.93h-8.1V106.88h7.77v1h-6.53v3.5h6.16v1h-6.16Z"/><path d="M211.35,117.15h-1.67L206,112.53h-2.86v4.62h-1.24V106.88h5c2.3.1,3.53,1,3.67,2.77s-1.08,2.74-3.24,2.88Zm-8.26-9.24v3.59h3.51c1.77,0,2.65-.67,2.65-1.9s-.92-1.66-2.65-1.69Z"/><path d="M230.16,106.88v1h-3.67v9.3h-1.24v-9.3h-3.67v-1Z"/><path d="M248.91,117.15,247.56,114h-4.91l-1.3,3.14h-1.29l4.37-10.27h1.29l4.48,10.27ZM243.08,113h4l-1.79-4.36a4.55,4.55,0,0,0-.21-.72c-.11.31-.2.54-.27.72Z"/><path d="M260.8,106.88H262v10.27H260.8Z"/><path d="M281.57,117.15,276,108.93a4.41,4.41,0,0,1-.49-1h-.05a6.83,6.83,0,0,1,.16,1.69v7.55h-1.19V106.88h1.4l5.56,8.26a5,5,0,0,1,.44.83h0a11.94,11.94,0,0,1-.11-1.6v-7.49h1.19v10.27Z"/><path d="M302.89,109.91c0-.17.05-.69.16-1.54,0-.28.05-.46.05-.57l-.05,0a7.69,7.69,0,0,1-.38,1.34l-3.45,8.06h-.71l-3.4-8.11c-.14-.55-.25-1-.32-1.29l-.05,0c.07.89.1,1.61.1,2.16v7.19h-1.13V106.88h1.62l3.13,7.44c.14.41.29.89.43,1.44H299a8.29,8.29,0,0,1,.43-1.39l3.13-7.49h1.62v10.27h-1.24Z"/><path d="M316.38,116.22h6.85v.93h-8.1V106.88h7.78v1h-6.53v3.5h6.15v1h-6.15Z"/><path d="M341.36,117.15l-5.61-8.22a4.41,4.41,0,0,1-.49-1h-.05a7.35,7.35,0,0,1,.16,1.69v7.55h-1.19V106.88h1.4l5.56,8.26a5,5,0,0,1,.44.83h.05a11.94,11.94,0,0,1-.11-1.6v-7.49h1.19v10.27Z"/><path d="M360,106.88v1h-3.67v9.3h-1.24v-9.3h-3.67v-1Z"/></g></g></svg>