<svg xmlns="http://www.w3.org/2000/svg" xmlns:xlink="http://www.w3.org/1999/xlink" viewBox="0 0 366.86 65.04"><defs><linearGradient id="a" x1="128.47" y1="40.25" x2="123.23" y2="38.82" gradientUnits="userSpaceOnUse"><stop offset="0" stop-color="#fff" stop-opacity="0"/><stop offset=".48" stop-color="#f8f8f8" stop-opacity="0"/><stop offset="1" stop-color="#291e1b"/><stop offset="1" stop-color="#5d5d5d"/></linearGradient><linearGradient id="b" x1="106.94" y1="22.78" x2="117.99" y2="30.21" xlink:href="#a"/></defs><g data-name="图层 2"><g data-name="图层 1"><path d="M31.25 31.55h26.27v22.31q-7.63 10.08-26.27 10.08Q2.53 62.41 1 33.39 2.22 2.22 30 1q20.46.31 27.19 18l-7.64 1.83Q44.69 7.42 29.72 7.11q-19.56 1.83-21.39 26 1.53 23.51 22.61 25.33 13.76 0 19.86-7.33V37.36H31.25zM225.1 4.74v5.53h-19.82V63h-6.7V10.27h-19.82V4.74zm9.04 0h6.41V63h-6.41zm69.36 17.19q0-1.45.87-8.74a32 32 0 0 0 .29-3.21l-.29-.29a41.77 41.77 0 0 1-2 7.58L283.68 63h-3.79l-18.36-46q-1.17-4.67-1.75-7.29l-.29.29q.58 7.59.58 12.24V63H254V4.74h8.74L279.6 47q1.15 3.51 2.33 8.16h.29a52.43 52.43 0 0 1 2.33-7.86l16.91-42.56h8.74V63h-6.7zm25.35 35.85h37V63h-43.7V4.74h42v5.53h-35.3v19.82h33.22v5.83h-33.22zM140 1.9c-9.64 2.3-16.15 9-19.54 18-3.2-8.35-8.94-14.9-17.25-17.46a32.58 32.58 0 0 0-18.69-.11q-16.83 4.86-20 24.5a41.18 41.18 0 0 0 .06 13.7Q67.91 58.86 85 63a35.44 35.44 0 0 0 16.1.15q14.19-3.15 19.3-15.71 4.92 12.33 18.67 15.62a35.56 35.56 0 0 0 16 .06q20.94-4.74 22-30-1.56-25.69-21.3-31A32.14 32.14 0 0 0 140 1.9zM86.07 57.3q-10.42-3.49-13.69-15a32.71 32.71 0 0 1 .23-18.19Q76 12.64 85.58 8.77a21 21 0 0 1 15.71 0q12.84 5.24 14.3 24.33-1 20.09-15.89 24.42a23 23 0 0 1-13.63-.22zm53.83 0q-14.09-4.72-15.1-24.19Q126.5 14 139.42 8.77a21 21 0 0 1 15.7 0Q168 14 169.42 33.11q-1 20.09-15.89 24.42a23 23 0 0 1-13.63-.23z" stroke="#000" stroke-miterlimit="10" stroke-width="2"/><path d="M127 25.94s-3.31 13.58-6.59 24.15l1.12 2.19 4.61-15.4a23.47 23.47 0 0 1 .86-10.94z" fill="url(#a)"/><path d="M119.74 15.3l.68 2.07S112.6 43 112.91 42.9c0 0 2.37-6.8 1.5-11.44z" fill="url(#b)"/></g></g></svg>